<svg version="1" xmlns="http://www.w3.org/2000/svg" width="237.333" height="237.333" viewBox="0 0 178.000000 178.000000"><path d="M35.7 3.7c-7.7 11.2-12 27.5-12.1 46.4l-.1 13.6-2.8 1.6c-3.8 2.2-5 6-4.5 14.7.5 8.6 3 14.3 8.7 20.3 5.7 6 12 8.4 14.7 5.7.8-.8 3 2.3 7.4 10.2 4 7.1 8 12.9 10.9 15.5l4.6 4.3h-8.9c-10.6 0-15.2 1.2-20.2 5.3-6.1 5-7.4 9.2-7.4 23.9V178h128v-10c0-12.4-1.3-18.8-5-23.8l-2.8-3.9 4 .3c2.2.1 4.8 1 5.9 2 2.7 2.4 3.4-.1 1.4-4.9-2-4.9-1.9-5.5.9-5 4.5.9 4-1.8-1.1-6.2-3.2-2.8-6.4-7-8.8-11.6-3.6-6.9-3.7-7.4-2-8.3 4.3-2.5 10.3-8.9 13.1-13.8 2.6-4.8 2.9-6.2 2.9-14.6 0-9-.1-9.5-2.7-11.7-2.6-2.3-2.8-2.9-2.8-10.8 0-15.7-4.5-34.6-11.7-49L142 0H38.3l-2.6 3.7zm84 131.9c-.3.3-1.2.4-1.9.1-.8-.3-.5-.6.6-.6 1.1-.1 1.7.2 1.3.5z"/></svg>